<svg xmlns="http://www.w3.org/2000/svg" width="96" height="26" viewBox="0 0 96 26" fill="none">
  <path d="M14.6037 7.44259H18.743V25.2664H14.8023V22.9633C14.118 23.8089 13.2735 24.443 12.2691 24.8658C11.2646 25.2886 10.1552 25.5 8.94101 25.5C7.21904 25.5 5.6792 25.1217 4.32149 24.3652C2.96378 23.6086 1.9041 22.5405 1.14246 21.1609C0.380821 19.7813 0 18.1791 0 16.3545C0 14.5298 0.380821 12.9332 1.14246 11.5648C1.9041 10.1963 2.96378 9.13373 4.32149 8.37717C5.6792 7.62061 7.21904 7.24232 8.94101 7.24232C10.089 7.24232 11.1432 7.44259 12.1035 7.84313C13.0638 8.24366 13.8972 8.83333 14.6037 9.61215V7.44259ZM9.40462 21.9286C10.9279 21.9286 12.1863 21.4168 13.1797 20.3932C14.1732 19.3696 14.6699 18.0234 14.6699 16.3545C14.6699 14.6856 14.1732 13.3393 13.1797 12.3158C12.1863 11.2922 10.9279 10.7804 9.40462 10.7804C7.88134 10.7804 6.62849 11.2922 5.64608 12.3158C4.66368 13.3393 4.17247 14.6856 4.17247 16.3545C4.17247 18.0234 4.66368 19.3696 5.64608 20.3932C6.62849 21.4168 7.88134 21.9286 9.40462 21.9286ZM30.0021 25.5C28.1697 25.5 26.7403 24.9938 25.7137 23.9813C24.6871 22.9688 24.1739 21.5392 24.1739 19.6923V0.5H28.3132V19.3919C28.3132 21.172 29.1411 22.0621 30.7968 22.0621C31.3487 22.0621 31.8455 21.9508 32.287 21.7283L32.4857 25.0661C31.713 25.3554 30.8851 25.5 30.0021 25.5ZM41.1287 25.5C39.2963 25.5 37.8669 24.9938 36.8403 23.9813C35.8137 22.9688 35.3004 21.5392 35.3004 19.6923V0.5H39.4398V19.3919C39.4398 21.172 40.2677 22.0621 41.9234 22.0621C42.4753 22.0621 42.9721 21.9508 43.4136 21.7283L43.6123 25.0661C42.8396 25.3554 42.0117 25.5 41.1287 25.5ZM59.2425 7.44259H63.3819V25.2664H59.4412V22.9633C58.7568 23.8089 57.9124 24.443 56.9079 24.8658C55.9034 25.2886 54.7941 25.5 53.5799 25.5C51.8579 25.5 50.318 25.1217 48.9603 24.3652C47.6026 23.6086 46.5429 22.5405 45.7813 21.1609C45.0197 19.7813 44.6388 18.1791 44.6388 16.3545C44.6388 14.5298 45.0197 12.9332 45.7813 11.5648C46.5429 10.1963 47.6026 9.13373 48.9603 8.37717C50.318 7.62061 51.8579 7.24232 53.5799 7.24232C54.7278 7.24232 55.782 7.44259 56.7423 7.84313C57.7027 8.24366 58.5361 8.83333 59.2425 9.61215V7.44259ZM54.0435 21.9286C55.5668 21.9286 56.8251 21.4168 57.8186 20.3932C58.812 19.3696 59.3087 18.0234 59.3087 16.3545C59.3087 14.6856 58.812 13.3393 57.8186 12.3158C56.8251 11.2922 55.5668 10.7804 54.0435 10.7804C52.5202 10.7804 51.2673 11.2922 50.2849 12.3158C49.3025 13.3393 48.8113 14.6856 48.8113 16.3545C48.8113 18.0234 49.3025 19.3696 50.2849 20.3932C51.2673 21.4168 52.5202 21.9286 54.0435 21.9286ZM91.8606 7.44259H96V17.2891C96 19.8925 95.3267 21.9119 93.98 23.3471C92.6333 24.7824 90.7016 25.5 88.1849 25.5C85.4695 25.5 83.5157 24.5765 82.3236 22.7296C81.7054 23.6642 80.9162 24.3596 79.9558 24.8158C78.9955 25.2719 77.831 25.5 76.4622 25.5C73.9455 25.5 72.0193 24.7824 70.6837 23.3471C69.3481 21.9119 68.6802 19.8925 68.6802 17.2891V7.44259H72.8196V16.9219C72.8196 18.613 73.1121 19.8591 73.6971 20.6602C74.2822 21.4613 75.2149 21.8618 76.4953 21.8618C77.7758 21.8618 78.7251 21.4557 79.3432 20.6435C79.9614 19.8313 80.2704 18.5908 80.2704 16.9219V7.44259H84.4098V16.9219C84.4098 18.5908 84.7189 19.8313 85.337 20.6435C85.9552 21.4557 86.9045 21.8618 88.1849 21.8618C89.4653 21.8618 90.3981 21.4613 90.9831 20.6602C91.5681 19.8591 91.8606 18.613 91.8606 16.9219V7.44259Z" fill="#25BEEB"/>
</svg>